HIERARCHY
ROOT Beta:Hips
{
	OFFSET 0.00 0.00 0.00
	CHANNELS 6 Xposition Yposition Zposition Yrotation Xrotation Zrotation
	JOINT Beta:Spine
	{
		OFFSET	0.0000	9.2263	1.5771
		CHANNELS 3 Xrotation Yrotation Zrotation
		JOINT Beta:Spine1
		{
			OFFSET	0.0000	16.2540	-0.1656
			CHANNELS 3 Xrotation Yrotation Zrotation
			JOINT Beta:Spine2
			{
				OFFSET	0.0000	13.6396	-1.2923
				CHANNELS 3 Xrotation Yrotation Zrotation
				JOINT Beta:Neck
				{
					OFFSET	0.0000	13.8774	-4.3542
					CHANNELS 3 Xrotation Yrotation Zrotation
					JOINT Beta:Neck1
					{
						OFFSET	0.0000	4.3400	0.9269
						CHANNELS 3 Xrotation Yrotation Zrotation
						JOINT Beta:Head
						{
							OFFSET	0.0000	4.0266	0.8585
							CHANNELS 3 Xrotation Yrotation Zrotation
							End Site
							{
								OFFSET 0.0000 23.0297 0.1231
							}
						}
					}
				}
				JOINT Beta:LeftShoulder
				{
					OFFSET	6.1442	10.1870	-3.7932
					CHANNELS 3 Zrotation Xrotation Yrotation
					JOINT Beta:LeftArm
					{
						OFFSET	12.3191	-1.1130	-1.7935
						CHANNELS 3 Zrotation Xrotation Yrotation
						JOINT Beta:LeftForeArm
						{
							OFFSET	27.6870	0.0000	0.0000
							CHANNELS 3 Xrotation Zrotation Yrotation
							JOINT Beta:LeftHand
							{
								OFFSET	27.8738	0.0000	0.0000
								CHANNELS 3 Zrotation Yrotation Xrotation
								JOINT Beta:LeftHandThumb1
								{
									OFFSET	2.3785	-1.0029	2.6209
									CHANNELS 3 Zrotation Xrotation Yrotation
									JOINT Beta:LeftHandThumb2
									{
										OFFSET	3.3624	-1.0029	2.8398
										CHANNELS 3 Zrotation Xrotation Yrotation
										JOINT Beta:LeftHandThumb3
										{
											OFFSET	4.5018	-1.3445	2.1783
											CHANNELS 3 Zrotation Xrotation Yrotation
											End Site
											{
												OFFSET 2.6000 -1.0000 1.0000
											}
										}
									}
								}
								JOINT Beta:LeftHandMiddle1
								{
									OFFSET	10.4639	0.6148	0.4298
									CHANNELS 3 Zrotation Xrotation Yrotation
									JOINT Beta:LeftHandMiddle2
									{
										OFFSET	5.7921	0.0000	0.0000
										CHANNELS 3 Zrotation Xrotation Yrotation
										JOINT Beta:LeftHandMiddle3
										{
											OFFSET	3.7132	0.0000	0.0000
											CHANNELS 3 Zrotation Xrotation Yrotation
											End Site
											{
												OFFSET 2.3000 0.0000 0.0000
											}
										}
									}
								}
								JOINT Beta:LeftHandIndex1
								{
									OFFSET	10.3945	0.6148	2.7055
									CHANNELS 3 Zrotation Xrotation Yrotation
									JOINT Beta:LeftHandIndex2
									{
										OFFSET	5.5493	0.0000	0.0000
										CHANNELS 3 Zrotation Xrotation Yrotation
										JOINT Beta:LeftHandIndex3
										{
											OFFSET	3.3911	0.0000	0.0000
											CHANNELS 3 Zrotation Xrotation Yrotation
											End Site
											{
												OFFSET 2.5000 0.0000 0.0000
											}
										}
									}
								}
								JOINT Beta:LeftHandRing1
								{
									OFFSET	10.3252	0.3211	-1.8755
									CHANNELS 3 Zrotation Xrotation Yrotation
									JOINT Beta:LeftHandRing2
									{
										OFFSET	5.4452	0.0000	0.0000
										CHANNELS 3 Zrotation Xrotation Yrotation
										JOINT Beta:LeftHandRing3
										{
											OFFSET	3.7132	0.0000	0.0000
											CHANNELS 3 Zrotation Xrotation Yrotation
											End Site
											{
												OFFSET 2.0000 0.0000 0.0000
											}
										}
									}
								}
								JOINT Beta:LeftHandPinky1
								{
									OFFSET	10.0130	-0.0783	-3.9671
									CHANNELS 3 Zrotation Xrotation Yrotation
									JOINT Beta:LeftHandPinky2
									{
										OFFSET	3.6763	0.0000	0.0000
										CHANNELS 3 Zrotation Xrotation Yrotation
										JOINT Beta:LeftHandPinky3
										{
											OFFSET	2.8113	0.0000	0.0000
											CHANNELS 3 Zrotation Xrotation Yrotation
											End Site
											{
												OFFSET 2.9000 0.0000 0.0000
											}
										}
									}
								}
							}
						}
					}
				}
				JOINT Beta:RightShoulder
				{
					OFFSET	-6.1402	10.1870	-3.7932
					CHANNELS 3 Zrotation Xrotation Yrotation
					JOINT Beta:RightArm
					{
						OFFSET	-12.3231	-1.1130	-1.7935
						CHANNELS 3 Zrotation Xrotation Yrotation
						JOINT Beta:RightForeArm
						{
							OFFSET	-27.6870	0.0000	0.0000
							CHANNELS 3 Xrotation Zrotation Yrotation
							JOINT Beta:RightHand
							{
								OFFSET	-27.8738	0.0000	0.0000
								CHANNELS 3 Zrotation Yrotation Xrotation
								JOINT Beta:RightHandThumb1
								{
									OFFSET	-2.5178	-0.9367	2.5137
									CHANNELS 3 Zrotation Xrotation Yrotation
									JOINT Beta:RightHandThumb2
									{
										OFFSET	-3.2638	-1.0870	2.9669
										CHANNELS 3 Zrotation Xrotation Yrotation
										JOINT Beta:RightHandThumb3
										{
											OFFSET	-4.4165	-1.3703	2.1350
											CHANNELS 3 Zrotation Xrotation Yrotation
											End Site
											{
												OFFSET -2.6000 -1.0000 1.0000
											}
										}
									}
								}
								JOINT Beta:RightHandIndex1
								{
									OFFSET	-10.4665	0.4896	2.7120
									CHANNELS 3 Zrotation Xrotation Yrotation
									JOINT Beta:RightHandIndex2
									{
										OFFSET	-5.3768	0.0000	0.0000
										CHANNELS 3 Zrotation Xrotation Yrotation
										JOINT Beta:RightHandIndex3
										{
											OFFSET	-3.3855	0.0000	0.0000
											CHANNELS 3 Zrotation Xrotation Yrotation
											End Site
											{
												OFFSET -2.6000 0.0000 0.0000
											}
										}
									}
								}
								JOINT Beta:RightHandMiddle1
								{
									OFFSET	-10.7596	0.4896	0.4278
									CHANNELS 3 Zrotation Xrotation Yrotation
									JOINT Beta:RightHandMiddle2
									{
										OFFSET	-5.6168	0.0000	0.0000
										CHANNELS 3 Zrotation Xrotation Yrotation
										JOINT Beta:RightHandMiddle3
										{
											OFFSET	-3.7364	0.0000	0.0000
											CHANNELS 3 Zrotation Xrotation Yrotation
											End Site
											{
												OFFSET -2.3000 0.0000 0.0000
											}
										}
									}
								}
								JOINT Beta:RightHandRing1
								{
									OFFSET	-10.4702	0.3879	-1.9363
									CHANNELS 3 Zrotation Xrotation Yrotation
									JOINT Beta:RightHandRing2
									{
										OFFSET	-5.4013	0.0000	0.0000
										CHANNELS 3 Zrotation Xrotation Yrotation
										JOINT Beta:RightHandRing3
										{
											OFFSET	-3.3916	0.0000	0.0000
											CHANNELS 3 Zrotation Xrotation Yrotation
											End Site
											{
												OFFSET -2.2000 0.0000 0.0000
											}
										}
									}
								}
								JOINT Beta:RightHandPinky1
								{
									OFFSET	-9.9715	-0.1191	-3.9540
									CHANNELS 3 Zrotation Xrotation Yrotation
									JOINT Beta:RightHandPinky2
									{
										OFFSET	-3.6528	0.0000	0.0000
										CHANNELS 3 Zrotation Xrotation Yrotation
										JOINT Beta:RightHandPinky3
										{
											OFFSET	-2.7820	0.0000	0.0000
											CHANNELS 3 Zrotation Xrotation Yrotation
											End Site
											{
												OFFSET -2.9000 0.0000 0.0000
											}
										}
									}
								}
							}
						}
					}
				}
			}
		}
	}
	JOINT Beta:LeftUpLeg
	{
		OFFSET	9.6338	-3.2733	0.0000
		CHANNELS 3 Xrotation Yrotation Zrotation
		JOINT Beta:LeftLeg
		{
			OFFSET	0.0000	-41.7300	-1.7300
			CHANNELS 3 Xrotation Yrotation Zrotation
			JOINT Beta:LeftFoot
			{
				OFFSET	0.0126	-39.1900	-0.8477
				CHANNELS 3 Xrotation Yrotation Zrotation
				JOINT Beta:LeftToeBase
				{
					OFFSET	-0.1833	-12.1931	8.2823
					CHANNELS 3 Xrotation Yrotation Zrotation
					End Site
					{
						OFFSET 0.0000 0.0000 10.1681
					}
				}
			}
		}
	}
	JOINT Beta:RightUpLeg
	{
		OFFSET	-9.6338	-3.2733	0.0000
		CHANNELS 3 Xrotation Yrotation Zrotation
		JOINT Beta:RightLeg
		{
			OFFSET	0.0000	-41.7300	-1.7300
			CHANNELS 3 Xrotation Yrotation Zrotation
			JOINT Beta:RightFoot
			{
				OFFSET	0.0126	-39.1900	-0.8477
				CHANNELS 3 Xrotation Yrotation Zrotation
				JOINT Beta:RightToeBase
				{
					OFFSET	-0.1833	-12.1931	8.2823
					CHANNELS 3 Xrotation Yrotation Zrotation
					End Site
					{
						OFFSET 0.0032 0.0000 10.1681
					}
				}
			}
		}
	}
}
MOTION
Frames: 7
Frame Time: 0.0333333
-148.2342 86.2804 1.5228 -71.5594 18.6063 6.9953 9.2240 7.2577 -7.5374 3.3086 3.4864 -2.7082 3.2874 3.4670 -2.7568 -1.3002 6.9618 2.1287 -0.0000 0.0000 -0.0000 -17.4492 47.1667 -15.2764 -15.8974 1.1606 -1.5779 -45.5016 7.7423 13.3882 -0.0000 -0.0000 -63.5623 -16.2639 0.7578 36.5355 -8.6244 5.6830 9.7324 14.0357 -1.1937 8.7074 6.9009 -10.0000 -26.1832 -53.3737 0.0000 -6.6183 -57.6173 0.0000 -0.0000 -13.1492 -0.0000 -0.0000 -43.9096 -0.0000 -8.1359 -34.4592 0.0000 0.0000 -17.2039 -0.0000 -0.0000 -56.1602 0.0000 -2.4215 -77.2897 0.0000 -0.0000 -24.6857 -0.0000 0.0000 -68.3844 -0.0088 -1.3768 -95.5825 0.0000 0.0000 -44.9470 0.0000 -0.0000 11.2332 3.0735 12.9345 55.7725 4.5547 -21.2662 -0.0000 -0.0000 96.2870 -32.4858 -6.2306 54.6952 11.0331 2.8369 5.2403 -14.0444 -1.1953 5.3146 -6.9029 -10.0000 36.1958 16.3400 0.0670 7.2690 5.9670 -0.0000 0.0000 -10.8529 -0.0000 -0.0000 23.1803 -0.0000 5.6873 26.9520 0.0000 -0.0000 -13.9622 -0.0000 0.0000 21.5423 0.0000 2.1619 42.5916 0.0000 0.0000 -10.1844 0.0000 -0.0000 24.7668 -1.0754 1.1173 51.9536 0.0000 0.0000 1.2543 0.0000 -0.0000 -47.9912 7.4199 -8.0130 52.7836 -9.0599 -4.7114 -22.2305 -0.8707 11.8619 -8.8023 0.0000 0.0000 -36.0016 -23.8802 -11.6578 115.1074 -6.3885 0.4989 -0.1989 -5.7737 -14.0598 -10.6726 -0.0000 -0.0000 
-161.8799 86.2410 1.7733 -71.2697 18.7743 6.6729 9.2273 6.0627 -6.2542 3.3762 2.7940 -2.3596 3.3570 2.7823 -2.3987 -1.1068 7.3279 2.1181 -0.0000 0.0000 -0.0000 -17.0916 48.2308 -15.8099 -17.6327 2.1462 -5.4710 -38.7137 10.2479 1.1564 -0.0000 -0.0000 -64.8900 -21.5399 0.7367 31.3082 -8.6955 5.5772 9.2282 14.0391 -1.1936 8.2340 6.9018 -10.0000 -26.5210 -52.9106 -0.0000 -6.6677 -57.1413 0.0000 -0.0000 -12.1073 -0.0000 0.0000 -43.5248 0.0031 -8.1035 -33.6743 0.0000 0.0000 -16.3821 0.0000 -0.0000 -55.5531 0.0000 -2.6348 -76.6723 0.0000 0.0000 -23.6422 0.0000 -0.0000 -67.4657 -0.0341 -1.5909 -94.6627 0.0000 0.0000 -43.9038 -0.0000 -0.0000 11.2726 2.8354 11.7188 61.7970 2.4710 -23.3453 -0.0000 -0.0000 67.9210 -26.2011 6.6662 51.2686 11.2702 2.6169 6.5495 -14.0369 -1.1933 6.5379 -6.9013 -10.0000 37.0694 15.1203 0.0768 7.1914 4.7159 -0.0000 -0.0000 -12.0862 -0.0000 -0.0000 21.7355 0.0000 5.5929 25.4868 -0.0000 -0.0000 -15.0000 -0.0000 -0.0000 19.7165 0.0000 2.1193 40.7622 0.0000 -0.0000 -12.0118 -0.0000 -0.0000 22.1566 -1.1245 1.0646 49.3434 0.0000 -0.0000 -1.3559 0.0000 0.0000 -37.7234 4.9614 -7.3780 52.7542 -9.8752 -2.0491 -34.0809 -2.5839 9.3463 -7.7459 -0.0000 -0.0000 -50.8569 -16.9410 -12.2199 119.0867 -2.3721 0.3118 -5.3833 -0.5636 -8.8274 -9.8793 -0.0000 0.0000 
-175.3450 86.7778 1.6165 -72.0339 18.6993 4.1657 8.5261 5.2676 -3.6298 3.2403 2.2022 -1.7249 3.2241 2.2024 -1.7545 -0.8597 7.9213 1.9789 -0.0000 0.0000 -0.0000 -14.1217 50.3679 -17.1345 -16.3080 2.4141 -7.0637 -32.8443 12.7991 -8.8179 -0.0000 -0.0000 -69.1391 -25.4379 0.2826 25.0977 -8.9850 5.1515 7.1707 14.0373 -1.1930 6.3041 6.9015 -10.0000 -27.8990 -49.4496 0.0000 -6.6887 -53.6211 0.0000 -0.0000 -7.8622 -0.0000 -0.0000 -40.4152 0.0135 -8.0466 -30.0498 0.0000 -0.0000 -12.7666 -0.0000 -0.0000 -51.4902 0.0000 -2.8651 -72.5918 0.0000 0.0000 -19.0993 0.0000 -0.0000 -62.1601 -0.1772 -1.3846 -89.3528 0.0000 -0.0000 -38.4567 0.0000 -0.0000 10.8581 2.6525 11.0783 65.0089 -1.7917 -24.8667 -0.0000 0.0000 40.6178 -14.4398 20.0629 54.0766 11.3473 2.5341 7.0115 -14.0307 -1.1920 6.9698 -6.8999 -9.9980 37.3779 14.6898 0.0802 7.1645 4.2744 -0.0000 -0.0000 -12.5215 -0.0000 -0.0000 21.2255 -0.0000 5.5602 24.9697 -0.0000 -0.0000 -15.0000 0.0000 0.0000 19.0721 -0.0000 2.1047 40.1166 -0.0000 -0.0000 -12.6568 0.0000 0.0000 21.2354 -1.1421 1.0464 48.4222 0.0000 -0.0000 -2.2771 0.0000 0.0000 -23.3524 4.3799 -2.8908 42.8672 -10.0000 0.1968 -37.8826 -3.3409 5.2336 -10.5490 -0.0000 -0.0000 -63.2684 -10.6988 -9.8587 115.1046 -0.3335 0.4964 -11.4786 -0.6049 0.6031 -7.5502 0.0000 0.0000 
-188.6032 87.6857 1.0904 -73.7632 19.2254 0.3898 7.4016 4.2583 -0.3900 2.9941 1.5567 -0.8974 2.9807 1.5718 -0.9143 -0.9286 8.8537 1.4563 -0.0000 0.0000 -0.0000 -10.0322 53.6706 -19.4841 -13.8203 2.0504 -6.3010 -28.0385 13.8543 -15.5027 -0.0000 -0.0000 -75.2776 -26.5295 -0.2455 20.3981 -9.5049 4.4575 3.6917 14.0317 -1.1928 3.0432 6.9000 -9.9985 -30.2279 -43.5563 0.0000 -6.6766 -47.6305 0.0000 -0.0000 -0.9443 -0.0000 0.0000 -35.1221 0.0324 -7.9127 -23.9124 0.0000 0.0000 -6.6382 -0.0000 0.0000 -44.5759 0.0000 -3.2132 -65.6548 0.0000 0.0000 -11.3862 -0.0000 0.0000 -53.1478 -0.4149 -1.2946 -80.3380 -0.0000 -0.0000 -29.2198 0.0000 0.0000 10.2000 2.6231 11.4094 64.8960 -6.1861 -27.5398 0.0000 -0.0000 23.2162 -2.5265 26.2320 60.1103 11.3723 2.5186 7.1102 -14.0449 -1.1948 7.0625 -6.9031 -10.0000 37.4437 14.5955 0.0792 7.1693 4.1786 0.0000 0.0000 -12.6159 -0.0000 -0.0000 21.1139 -0.0000 5.5652 24.8573 0.0000 -0.0000 -15.0000 -0.0000 0.0000 18.9321 0.0000 2.1089 39.9764 0.0000 0.0000 -12.7967 0.0000 -0.0000 21.0355 -1.1511 1.0506 48.2222 -0.0000 0.0000 -2.4771 -0.0000 0.0000 -8.4511 7.3180 2.9539 25.8515 -7.6910 2.0555 -28.7689 -3.9926 -1.1338 -18.3350 0.0000 0.0000 -73.1489 -7.2880 -5.4320 102.7645 -2.7256 0.3021 -15.5480 -3.5958 2.1883 -5.4223 0.0000 -0.0000 
-201.9994 88.5676 0.5296 -75.7868 20.2512 -2.3651 6.5882 2.8516 1.7910 2.7993 0.9250 -0.2628 2.7894 0.9493 -0.2699 -1.4339 9.8226 0.8591 -0.0000 0.0000 -0.0000 -7.4183 56.8697 -21.4577 -11.8078 1.4333 -4.1465 -24.7722 12.5364 -19.7191 -0.0000 -0.0000 -80.9824 -20.8240 -2.1664 18.4153 -10.1701 3.6848 -0.4014 14.0316 -1.1934 -0.7896 6.8998 -9.9986 -32.9650 -36.4169 0.0000 -6.5687 -40.3784 0.0000 -0.0000 6.5299 -0.0000 -0.0000 -28.6968 0.0553 -7.6978 -16.6383 0.0000 0.0000 0.6206 -0.0000 -0.0000 -36.2313 -0.0000 -3.5002 -57.2913 -0.0000 0.0000 -2.2480 0.0000 -0.0000 -42.3409 -0.6873 -1.6601 -69.5318 0.0000 0.0000 -18.2014 0.0000 -0.0000 9.6510 2.7492 12.5221 62.0637 -9.7198 -30.5252 0.0000 0.0000 16.4464 7.9173 19.7108 65.1914 11.0893 2.7838 5.5544 -14.0464 -1.1961 5.6082 -6.9032 -10.0000 36.4055 16.0465 0.0688 7.2542 5.6662 0.0000 -0.0000 -11.1494 0.0000 0.0000 22.8325 0.0000 5.6690 26.5997 -0.0000 0.0000 -14.0200 0.0000 0.0000 21.1033 0.0000 2.1543 42.1518 -0.0000 0.0000 -10.6237 -0.0000 0.0000 24.1393 -1.0889 1.1077 51.3260 -0.0000 -0.0000 0.6267 0.0000 -0.0000 6.4004 11.6223 5.6818 1.7786 -7.5919 4.2716 2.1292 -6.1129 -10.0819 -27.3378 -0.0179 1.6184 -77.6507 -5.3496 -1.2774 81.9348 -1.3998 -0.7944 -17.2584 -4.8860 -1.4647 -5.8306 -0.0000 0.0000 
-215.9791 89.0777 0.2739 -77.2414 21.0536 -2.4813 6.4467 1.4587 1.7423 2.7194 0.5209 -0.1466 2.7127 0.5441 -0.1513 -2.0540 10.4225 0.5619 -0.0000 0.0000 -0.0000 -7.9960 58.6269 -21.0828 -10.9672 0.9280 -1.9564 -23.9141 10.0071 -21.6341 0.0000 -0.0000 -84.6326 -7.4255 -5.9921 18.3046 -10.8058 3.0405 -4.0292 14.0369 -1.1941 -4.1830 6.9011 -10.0000 -35.3881 -28.9593 0.0000 -6.2326 -32.8111 0.0000 -0.0000 12.1387 -0.0000 0.0000 -21.8845 0.0699 -7.4458 -9.8905 0.0000 0.0000 7.2417 -0.0000 -0.0000 -27.6978 0.0000 -3.2387 -48.7486 -0.0000 -0.0000 6.0265 0.0000 0.0000 -31.6370 -0.9340 -1.8839 -58.8272 -0.0000 -0.0000 -7.5752 -0.0000 0.0000 9.4712 2.9637 13.8514 58.9517 -11.4818 -31.3420 0.0000 -0.0000 14.8654 16.8940 2.7315 67.9599 10.3116 3.5349 1.2504 -14.0163 -1.1922 1.5823 -6.8959 -9.9931 33.5319 20.0696 0.0461 7.4515 9.7881 0.0000 -0.0000 -7.0861 -0.0000 -0.0000 27.5978 0.0000 5.9131 31.4282 -0.0000 0.0000 -10.4205 -0.0000 0.0000 27.1196 -0.0000 2.2539 48.1793 -0.0000 -0.0000 -4.6030 0.0000 -0.0000 32.7382 -0.8983 1.2365 59.9258 -0.0000 0.0000 9.2265 -0.0000 0.0000 7.9929 11.1015 6.5307 8.4122 -9.9999 7.0758 14.5265 -6.0907 -13.1403 -18.8193 -0.0000 -0.0000 -74.1612 -3.3633 0.6678 54.7527 2.1325 -2.5227 -16.4395 -4.0051 0.6410 -8.4850 -0.0000 -0.0000 
-230.6734 89.0692 0.3164 -78.1467 21.0414 -0.9929 6.7255 1.0225 0.0657 2.7222 0.5714 -0.4520 2.7164 0.5868 -0.4596 -2.2889 10.4020 0.6110 -0.0000 0.0000 -0.0000 -10.5933 58.2888 -18.7922 -11.0976 0.7078 -0.7432 -25.9124 8.7487 -20.2773 -0.0000 -0.0001 -85.6982 7.5405 -9.9655 18.5881 -11.2394 2.6421 -6.3888 14.0392 -1.1939 -6.3880 6.9018 -10.0000 -36.9623 -21.4403 0.0000 -5.5289 -25.1892 -0.0000 -0.0000 14.7927 -0.0000 0.0000 -14.8006 0.0648 -7.2095 -4.7905 -0.0000 -0.0000 11.9500 -0.0000 0.0000 -19.4666 -0.0000 -1.9002 -40.5132 0.0000 -0.0000 11.7591 0.0000 -0.0000 -22.0039 -1.1269 -0.4375 -49.1905 -0.0000 -0.0000 1.3825 -0.0000 -0.0000 9.7914 3.1924 14.8246 58.0022 -11.1442 -29.1173 0.0000 -0.0000 15.3241 23.3547 -15.8482 67.8617 9.3764 4.6189 -4.5047 -14.0148 -1.1914 -3.8066 -6.8957 -9.9925 29.6834 25.4552 0.0198 7.6920 15.3041 0.0000 -0.0000 -1.6485 -0.0000 -0.0000 33.9769 -0.0000 6.2128 37.8903 -0.0000 -0.0000 -5.4359 -0.0000 0.0000 35.1711 -0.0000 2.3710 56.2457 -0.0000 -0.0000 3.4542 0.0000 0.0000 44.2446 -0.6324 1.3906 71.4342 -0.0000 0.0000 20.7349 -0.0000 -0.0000 2.7673 5.8935 5.3924 32.7263 -8.5108 8.8349 13.6554 -2.8722 -12.5602 -9.6364 0.0000 -0.0000 -64.0514 -2.1072 1.0325 27.7462 3.0150 -3.6264 -10.9707 -2.3050 5.7229 -11.6532 -0.0000 -0.0000 
